/* XPM */
static char * insert_normal[] = {
"77 25 24 1",
" 	c None",
".	c #212E44",
"+	c #374E72",
"@	c #293A54",
"#	c #202D42",
"$	c #1F2D41",
"%	c #1F2C41",
"&	c #1F2C40",
"*	c #909CB0",
"=	c #BCC4D0",
"-	c #283954",
";	c #FFFFFF",
">	c #637591",
",	c #7A89A1",
"'	c #1F2B3F",
")	c #A6B0C0",
"!	c #E8EBEF",
"~	c #D2D7DF",
"{	c #1E2B3F",
"]	c #4D6181",
"^	c #202E43",
"/	c #293A55",
"(	c #293B55",
"_	c #293B56",
".+++++++++++++++++++++++++++++++++++++++++++++++++++++++++++++++++++++++++++@",
"#+++++++++++++++++++++++++++++++++++++++++++++++++++++++++++++++++++++++++++@",
"$+++++++++++++++++++++++++++++++++++++++++++++++++++++++++++++++++++++++++++@",
"$+++++++++++++++++++++++++++++++++++++++++++++++++++++++++++++++++++++++++++@",
"%+++++++++++++++++++++++++++++++++++++++++++++++++++++++++++++++++++++++++++@",
"&+++++++++++++++++++++++++++++++++++++++++++++++++++++++++++++++++++++++++++@",
"&++++++++++++++++*=*++++++++++++++++++++++++++++++++++++++++++++++++++++++++-",
"&++++++++++++++++=;=++++++++++++++++++++++++++++++++++++>==+++++++++++++++++-",
"&++++++++++++++++>,>++++++++++++++++++++++++++++++++++++,;;+++++++++++++++++-",
"'++++++++++++++++*=*++==,);;)+++);;;!*+++*~;;~>++>==,!;~~;;==*++++++++++++++@",
"{++++++++++++++++=;=++;;;;;;;,+);;==!=++);;=~;;>+,;;;;;;;;;;;=++++++++++++++@",
"{++++++++++++++++=;=++;;!]]!;=+=;~+++]+];;>++*;~+,;;=++],;;+++++++++++++++++@",
"{++++++++++++++++=;=++;;,++=;=+*;;;!=>+,;;;;;;;;+,;;]+++,;;+++++++++++++++++@",
"{++++++++++++++++=;=++;;,++=;=++,=~;;;],;;======+,;;++++,;;+++++++++++++++++@",
"'++++++++++++++++=;=++;;,++=;=+]+++];;,];;,+++],+,;;++++,;;+++++++++++++++++-",
"&++++++++++++++++=;=++;;,++=;=+=;==~;;]+);;==~;=+,;;++++>;;~=>++++++++++++++@",
"&++++++++++++++++=;=++;;,++=;=+*!;;;~,+++*~;;;=,+,;;+++++);;;,++++++++++++++@",
"$+++++++++++++++++++++++++++++++++++++++++++++++++++++++++++++++++++++++++++@",
"#+++++++++++++++++++++++++++++++++++++++++++++++++++++++++++++++++++++++++++@",
"#+++++++++++++++++++++++++++++++++++++++++++++++++++++++++++++++++++++++++++@",
"^+++++++++++++++++++++++++++++++++++++++++++++++++++++++++++++++++++++++++++@",
"^+++++++++++++++++++++++++++++++++++++++++++++++++++++++++++++++++++++++++++/",
".+++++++++++++++++++++++++++++++++++++++++++++++++++++++++++++++++++++++++++(",
".+++++++++++++++++++++++++++++++++++++++++++++++++++++++++++++++++++++++++++_",
".+++++++++++++++++++++++++++++++++++++++++++++++++++++++++++++++++++++++++++@"};
