/* XPM */
static char * insert_active[] = {
"77 25 13 1",
" 	c None",
".	c #4B0719",
"+	c #750924",
"@	c #4A0719",
"#	c #B27685",
"$	c #D1ADB6",
"%	c #FFFFFF",
"&	c #933F54",
"*	c #A35B6D",
"=	c #C1919D",
"-	c #EFE3E6",
";	c #E0C8CE",
">	c #84243C",
".+++++++++++++++++++++++++++++++++++++++++++++++++++++++++++++++++++++++++++@",
".+++++++++++++++++++++++++++++++++++++++++++++++++++++++++++++++++++++++++++.",
".+++++++++++++++++++++++++++++++++++++++++++++++++++++++++++++++++++++++++++.",
".+++++++++++++++++++++++++++++++++++++++++++++++++++++++++++++++++++++++++++.",
".+++++++++++++++++++++++++++++++++++++++++++++++++++++++++++++++++++++++++++.",
".+++++++++++++++++++++++++++++++++++++++++++++++++++++++++++++++++++++++++++.",
".++++++++++++++++#$#++++++++++++++++++++++++++++++++++++++++++++++++++++++++.",
".++++++++++++++++$%$++++++++++++++++++++++++++++++++++++&$$+++++++++++++++++.",
".++++++++++++++++&*&++++++++++++++++++++++++++++++++++++*%%+++++++++++++++++.",
".++++++++++++++++#$#++$$*=%%=+++=%%%-#+++#;%%;&++&$$*-%;;%%$$#++++++++++++++.",
".++++++++++++++++$%$++%%%%%%%*+=%%$$-$++=%%$;%%&+*%%%%%%%%%%%$++++++++++++++.",
".++++++++++++++++$%$++%%->>-%$+$%;+++>+>%%&++#%;+*%%$++>*%%+++++++++++++++++.",
".++++++++++++++++$%$++%%*++$%$+#%%%-$&+*%%%%%%%%+*%%>+++*%%+++++++++++++++++.",
".++++++++++++++++$%$++%%*++$%$++*$;%%%>*%%$$$$$$+*%%++++*%%+++++++++++++++++.",
".++++++++++++++++$%$++%%*++$%$+>+++>%%*>%%*+++>*+*%%++++*%%+++++++++++++++++.",
".++++++++++++++++$%$++%%*++$%$+$%$$;%%>+=%%$$;%$+*%%++++&%%;$&++++++++++++++.",
".++++++++++++++++$%$++%%*++$%$+#-%%%;*+++#;%%%$*+*%%+++++=%%%*++++++++++++++.",
".+++++++++++++++++++++++++++++++++++++++++++++++++++++++++++++++++++++++++++.",
".+++++++++++++++++++++++++++++++++++++++++++++++++++++++++++++++++++++++++++.",
".+++++++++++++++++++++++++++++++++++++++++++++++++++++++++++++++++++++++++++.",
".+++++++++++++++++++++++++++++++++++++++++++++++++++++++++++++++++++++++++++.",
".+++++++++++++++++++++++++++++++++++++++++++++++++++++++++++++++++++++++++++.",
".+++++++++++++++++++++++++++++++++++++++++++++++++++++++++++++++++++++++++++.",
".+++++++++++++++++++++++++++++++++++++++++++++++++++++++++++++++++++++++++++.",
".+++++++++++++++++++++++++++++++++++++++++++++++++++++++++++++++++++++++++++."};
